<?xml version="1.0" encoding="UTF-8"?>
<svg id="Layer_1" data-name="Layer 1" xmlns="http://www.w3.org/2000/svg" viewBox="0 0 266.93 107.71">
  <defs>
    <style>
      .cls-1 {
        fill: #fff;
      }

      .cls-2 {
        fill: #d64329;
        stroke: #d6432a;
        stroke-miterlimit: 10;
        stroke-width: 4px;
      }
    </style>
  </defs>
  <g>
    <path class="cls-1" d="M.22,88.57v.11c1.21.55,2.64.99,3.85,1.65,0,0,.22-.44.22-.55-.77-.66-1.54-1.32-2.31-2.09,0-.22,0-.44.22-.66,2.42.77,4.95,1.54,7.48,2.31,0-.22.22-.44.33-.66-.66-.44-1.43-.99-2.2-1.54.55-.22,1.1-.77,1.54-.66,3.52,1.54,7.15,3.19,11.44,3.08h10.23v-.99c-1.54,0-3.19-.22-4.84-.33,10.01.55,17.71-3.41,24.09-11.33-2.2-.77-3.74-1.43-5.39-2.09-3.08-.99-5.94-1.98-9.02-2.86-1.54-.55-3.3-.22-4.51-1.1-7.81-5.83-14.85-12.43-18.04-22.11-1.76-4.73-2.64-9.57-1.65-14.74.66-2.97,3.85-5.06,7.15-4.4,2.09.33,4.18.66,6.27.66,12.76-.22,25.63-.44,38.39-.77.44,0,.88,0,2.2.22-1.65.55-2.53.77-3.41,1.21v.44c.88.22,1.87.44,2.86.66v.44c-2.09.55-3.96,1.21-6.71,2.09,1.43.44,2.09.77,2.97.99v.66c-2.09.44-3.96.77-6.05,1.1-2.75.44-5.61.99-8.25,1.43-.33,0-.66.55-.99.88.44.33.88.66,1.21.99-2.75,0-5.39-.33-8.03-.44v.44c.77,0,1.54.33,2.53.44-6.16.33-12.1.66-18.37,1.1,4.4,15.95,14.63,21.78,28.71,27.17,2.86,1.1,5.83,1.76,8.58,2.75.66.22,1.21.55,2.42,1.21h-1.54c.66,3.52-.22,6.93-1.87,9.9-5.61,10.56-20.24,15.84-31.68,15.84-9.9,0-20.24-3.96-28.05-10.01,0,0,.22-.22.22-.44ZM23.1,58.87c-2.42-5.28-5.06-10.78-7.48-15.73,0,3.41,5.28,14.41,7.48,15.73ZM23.43,37.42v.44h13.09v-.44h-13.09ZM39.82,32.25v-.22h-12.21v.22h12.21ZM40.15,89.56c4.18-.88,10.23-4.95,11.66-7.92-3.74,2.53-8.03,5.5-11.66,7.92Z"/>
    <path class="cls-1" d="M107.69,84.17c.77-19.03,1.54-37.95,2.31-56.76h.77c.22,2.31.44,4.73.66,6.93.22-2.09.44-4.51.77-6.71h.88c.33,2.53.66,5.17.99,7.81h.55c.22-.77.44-1.65.66-2.42h.55c.22.88.66,1.98.66,2.86v7.92h.55v22.22h.44v-6.93h.44v7.92h.55v-13.75h.22v30.91c1.87,0,3.74.22,5.72.33v.44c-1.76.33-3.3.55-5.06.88,1.54.33,3.08.66,4.62.99v.66c-1.87.33-3.74.66-5.61,1.1v.55c.44.22.99.44,1.54.77-1.1,1.54-2.2,3.08-3.63,4.4-.88.77-2.09,1.21-3.3,1.21-1.87,0-3.96-.88-5.28-2.31-.66-.66-2.2-.55-3.52-.77l-.33.66c.44.44.99.99,1.1,1.1-6.16.22-12.98.55-19.8.88-.66,4.29-1.21,8.47-1.87,12.65h-.66v-5.94h-.22c-.44,1.76-.88,3.74-1.32,5.5h-.55v-9.35h-.77c-.44.99-.77,1.98-1.1,2.97h-.66c0-1.65-.22-3.3-.22-5.28-.88.55-1.54,1.1-2.64,1.87-1.54-1.32-3.3-2.53-4.84-3.96-1.65-1.54-2.09-3.63-1.21-5.72.77-2.2,2.42-3.41,4.73-3.52h3.08v-3.52c-.44.66-.77.99-1.32,1.54v-7.7h-.33c0,.99-.22,1.87-.22,2.64h-.33c.11-3.3.33-6.6.44-9.9h-.44c-.11.88-.22,1.54-.33,2.2v-6.71c-.11-2.86-.44-5.5-.55-8.36-.22-4.29-.33-8.47-.77-12.87-.11-1.43-.99-2.75-1.65-4.29-.22-.77-.77-1.65-.55-2.2,1.21-2.64,3.52-6.6,6.93-6.6,2.64,0,5.61,1.76,5.72,4.62.33,5.39.33,10.67.55,15.95.33,11,.66,22,.99,33,0,2.09.55,2.86,2.75,2.86h19.91v-.77ZM76.56,37.53c.22,8.58.55,17.05.77,26.07v-24.09c0-.66,0-1.43-.11-2.2v.22h-.66ZM85.58,91.32h10.01v-.22c-3.3,0-6.71-.33-10.01-.44v.66ZM87.56,85.71v.22h18.92v-.22h-18.92ZM110.33,63.71h.22v-10.67h-.22v10.67ZM115.17,63.6h-.33v20.35h.33v-20.35Z"/>
    <path class="cls-1" d="M131.89,89.67l.44,1.98h.55c0-.66.33-1.32.44-1.98h-.22c0,.22-.22.55-.44,1.21-.22-2.09-.44-3.74-.66-5.39h.33c0,.33,0,.55.22.99h.33c0-2.09-.22-4.18-.44-6.27h.22c0,.33.22.55.22.44.66-13.31,1.43-26.95,2.09-40.92-.88,0-1.65.22-2.42.33-3.85.55-6.6-2.64-5.83-6.49.66-3.41,2.97-4.18,6.05-3.96,2.53.22,3.52-.77,3.52-3.41s1.1-2.09,1.76-3.3c.33,0,.77.22.99.22,0,1.98.33,3.74.44,5.72h.44c0-1.87.22-3.74.44-5.61,1.65-.44,2.86-.77,3.63-.77,1.87,0,2.09,1.54,2.31,6.16,9.68,0,19.36-.77,29.04-.77,5.39,0,10.67.22,16.06.99-1.65.22-3.19.44-5.5.77,2.09.33,3.3.55,4.73.88v.77c-2.42.22-4.95.55-7.26.77v.55c.88.22,1.76.44,2.64.55v.44c-.88.22-1.65.55-2.53.66-4.84.55-9.9,0-14.3,1.65-2.97.99-5.83.44-8.91,1.21,1.65.22,2.97.33,3.96.44h-10.12c.88,0,1.65.22,2.53.33-3.74.44-7.48.66-11.11.88-1.32,16.72-2.64,33.44-4.07,49.83,10.89-.77,21.78-1.54,32.89-2.42v-15.95c-3.3.22-6.82.33-10.23.55-3.3.22-6.49.22-9.79.66-1.21,0-2.2,1.21-3.3,1.65-.44.22-1.1.44-1.65.44-1.21-.22-2.75,0-3.3-1.54-.22-.77-.22-1.43-.33-2.09-1.1-5.5,1.21-8.36,6.82-8.58,6.82-.22,13.75-.33,20.57-.44h2.09c.22-1.32.66-2.31.99-4.07.44,1.54.66,2.42.99,3.41.22-.88.44-1.76.77-2.53h.55c.33.99.66,2.09,1.1,3.08,3.19.33,6.49.66,9.68.99v.44c-1.32.33-2.86.55-4.07.77,1.32.22,2.97.44,4.4.66v.66c-1.65.44-3.41.77-5.61,1.32.99.55,1.54.77,2.53,1.32-1.54.44-2.64.77-3.3,1.1,0,2.64.33,5.28.44,8.14.22-.44.33-.77.44-1.21h.44v8.69c0,1.98.77,2.86,2.75,2.75h4.18v.77h-5.94v.55c1.65.33,3.19.77,4.73,1.1v.44c-1.21,0-2.53,0-3.85.33-.66,0-1.65.99-1.65,1.54-.33,2.2-1.21,3.41-2.75,3.41-.77,0-1.65-.33-2.75-.99-.33-.22-.77-.55-1.21-.44-3.74,0-7.37.33-11.11.66-.99,0-1.98.22-3.19,0-1.32,0-2.53.44-3.85.77-2.09.66-4.51.55-6.82.77-1.54.22-3.08.33-4.73.55-.44,0-.88.55-1.54.99-.44-.11-.99-.88-1.54-.88-.33,0-.66.33-.88,1.21,0,.33-1.21,0-2.31,0-.55.77-3.52,1.76-5.72,1.76-.66,0-1.32-.11-1.76-.44-2.75-2.09-2.86-5.61-2.86-8.8h.11ZM130.46,31.26c0,1.65-.22,3.41,0,4.95,0,.33,2.09.33,3.19.44-.99-.77-2.75-.88-2.97-1.54-.33-1.21.22-2.64.44-3.85h-.66ZM138.49,39.62c-.77,12.32-1.54,24.75-2.31,37.18h.55c.77-12.32,1.65-24.86,2.53-37.18h-.77ZM146.41,35.11v.55c3.63-.22,7.37-.44,9.79-.55h-9.79ZM156.2,67.45v.55h11.11v-.55h-11.11ZM174.68,62.72v-.22h-16.72v.22h16.72ZM169.95,29.28v.22h10.89v-.22h-10.89ZM181.17,85.82h.33v-10.78h-.33v10.78Z"/>
    <path class="cls-1" d="M207.68,90.88l-.33,2.53h-.55c-.22-.77-.44-1.54-.55-2.31-.22-5.5-.44-10.78-1.1-16.28l-.44,1.21h-.44v-31.79c-2.31,1.43-5.17,0-6.6,2.64h-2.53c-.44,0-1.1-.22-1.32-.55-1.21-2.09-2.2-4.07-1.32-6.6.88-2.31,2.64-3.08,4.84-3.41,1.98-.22,3.96-.44,5.83-.99.66-.22.99-1.43,1.21-1.65-.22-1.54-.77-2.97-.44-3.85.33-.99.88-2.42,2.09-2.42.44,0,.88.11,1.43.44.66.33,1.54.55,2.2.77,2.86.66,3.96,2.64,4.18,5.39.88,0,1.87.22,2.86.22v.55c-.88.33-1.65.66-2.2.88.66.22,1.54.44,2.97.77-1.32.66-2.09.99-2.86,1.43,1.65,1.65.77,2.2-.99,2.31-.55,19.8-1.21,39.6-1.87,59.18h-.66c0-1.21-.22-2.53-.33-3.74h-.44c0,.99-.33,1.98-.55,3.19-1.87-1.1-.77-2.75-.99-3.96-.33-1.43-.44-2.75-.55-4.07h-.66l.11.11ZM207.46,44.02h-.33v14.19h.33v-14.19ZM211.42,66.9h.22v-9.46h-.22v9.46Z"/>
  </g>
  <g>
    <rect class="cls-2" x="230.24" y="24.39" width="34.69" height="73.06" rx="17.06" ry="17.06"/>
    <g>
      <path class="cls-1" d="M248.49,66.47l3.06-.36c.95.11,1.87-.58,2.74.03.37.25.68,1.28.6,1.69-.13.66-.73.5-1.19.58-1.24.22-2.45.29-3.69.44-.41.05-.81.22-1.23.21l.59,3.59c.52-.09,1.07-.06,1.59-.12,1.62-.18,3.26-.42,4.87-.67.25-.04.6-.23.89-.21.74.05,1.05,2.04.66,2.59l-7.55.97c-.18.35.08.73.13,1.07.23,1.52.38,3.07.69,4.56.07.37.25.83.36,1.2-.24.96-2.72.98-2.94.28-.17-.54-.17-1.14-.24-1.68-.22-1.55-.42-3.11-.59-4.67-.02-.23-.05-.39-.32-.38-.94.12-1.88.25-2.82.34-1.06.11-2.13.25-3.18.36-.95.1-1.22-.17-1.54-1.03-.08-.21-.47-1.63-.41-1.7.5-.02,1.02.03,1.51,0,.96-.07,1.95-.27,2.89-.36,1.12-.12,2.24-.16,3.35-.31l-.53-3.61-5.55.57c-.1-.04-.18-.12-.23-.21-.27-.46-.44-1.24-.67-1.77-.09-.21-.25-.41-.33-.63.04-.19.93-.09,1.14-.11,1.31-.13,2.68-.35,3.99-.44.26-.02,1.25.05,1.37-.03.21-.15-.11-1.08-.14-1.34-.1-.84-.14-1.72-.24-2.57-.03-.29-.22-.42-.11-.79s.44-.31.75-.3c.57.02,1.59.14,1.94.64.28.4.05,1.22.09,1.76.02.3.11.66.15.96.05.47-.02.96.16,1.43Z"/>
      <path class="cls-1" d="M253.53,40.86c.19.21.36.31.44.64.12.48-.21.56-.4.9-.26.49-.46,1.07-.72,1.57-.91,1.73-1.95,3.42-3.22,4.91l-.04.18c1.68,1.24,3.36,2.56,4.84,4.03.54.53,2.09,1.89,1.48,2.67-.2.26-1.5,1.32-1.76,1.42-.55.21-.48-.19-.72-.55-1.17-1.75-2.43-3.13-3.94-4.61-.45-.44-.92-.88-1.4-1.28-.27.3-.5.63-.78.92-2.26,2.4-4.79,4.66-7.59,6.38-.09.03-.17.02-.26,0-.21-.04-1.29-.93-1.53-1.13-.11-.09-.87-.76-.89-.82-.07-.25,1.21-.71,1.45-.84,4.13-2.18,8.6-6.42,10.99-10.45.35-.59.57-1.18.86-1.8.02-.15,0-.1-.11-.11-.82-.12-1.66.11-2.44.15-1.68.09-3.35.13-5.03.22-.56.03-1.62.28-2.12.14-.59-.17-.84-2.3-1.01-2.84-.01-.08,0-.17.07-.22.15-.1,1.56.17,1.88.19,2.65.15,6.36.02,9.01-.23.62-.06,1.17-.32,1.85-.23.36.05.86.53,1.09.79Z"/>
      <path class="cls-1" d="M257.17,61.18c.25.24.75.91.96,1.22.36.54.77.99.29,1.56-1.41,1.69-2.59-1.81-3.05-2.71.46-.78,1.22-.63,1.81-.07Z"/>
      <path class="cls-1" d="M254.74,62.81c.35.34,1.22,1.52,1.32,1.97.24,1.13-.9,1.11-1.6.64-.58-.4-1.21-1.78-1.61-2.39-.07-.28.76-.73,1-.74.28-.01.69.33.89.52Z"/>
    </g>
  </g>
  <g>
    <path class="cls-1" d="M3.85,2.12c0,.47.12.87.36,1.22.24.34.55.65.93.93.38.28.78.55,1.2.81.46.28.89.57,1.31.88.41.31.76.67,1.03,1.07.27.4.4.89.4,1.47,0,.62-.16,1.17-.49,1.65-.32.47-.77.85-1.34,1.12-.57.27-1.24.4-2.01.4-.32,0-.66-.03-1.02-.09s-.68-.14-.99-.25-.56-.22-.75-.34c-.05-.04-.09-.08-.12-.13-.03-.05-.05-.12-.06-.22l-.11-2.72c-.01-.06.02-.09.08-.1.07,0,.1.02.12.06.14.36.31.74.51,1.14.2.4.43.77.69,1.11.26.34.57.61.91.82.34.21.73.31,1.18.31.31,0,.61-.05.88-.16.28-.11.5-.3.68-.57s.27-.64.27-1.11c0-.56-.13-1.05-.39-1.45-.26-.4-.58-.75-.98-1.05-.4-.3-.81-.58-1.24-.85-.42-.28-.82-.56-1.21-.85-.38-.29-.7-.62-.95-1s-.37-.84-.37-1.38c0-.66.18-1.2.54-1.62.36-.42.82-.73,1.38-.94.56-.2,1.13-.31,1.72-.31.4,0,.8.04,1.21.11.41.07.76.17,1.04.31.11.04.18.08.22.14.04.06.05.13.05.2l.04,2.43s-.03.08-.08.09c-.05.01-.09,0-.12-.04-.06-.18-.15-.43-.27-.75-.12-.32-.29-.64-.5-.96-.22-.32-.49-.6-.81-.83-.32-.23-.72-.34-1.19-.34-.36,0-.67.07-.94.22-.26.14-.47.35-.61.6-.14.26-.22.57-.22.94Z"/>
    <path class="cls-1" d="M22.1,2.39c0-.62-.14-1.11-.42-1.46-.28-.35-.69-.52-1.21-.52-.02,0-.04-.04-.04-.11s.01-.11.04-.11c.3,0,.6,0,.91.03.31.02.64.03,1,.03.31,0,.62,0,.93-.03.31-.02.58-.03.84-.03.02,0,.04.04.04.11s-.01.11-.04.11c-.48,0-.85.17-1.1.52-.25.35-.38.83-.38,1.46v5.04c0,.88-.18,1.63-.55,2.27-.37.64-.88,1.13-1.54,1.48-.66.35-1.43.52-2.32.52s-1.66-.17-2.34-.51c-.68-.34-1.21-.83-1.59-1.47-.38-.64-.57-1.39-.57-2.27V1.66c0-.35-.03-.61-.1-.78-.07-.17-.2-.29-.4-.36-.2-.07-.49-.1-.87-.1-.04,0-.05-.04-.05-.11s.02-.11.05-.11c.3,0,.64,0,1.02.03.38.02.78.03,1.2.03.44,0,.85,0,1.22-.03.37-.02.71-.03,1.01-.03.04,0,.05.04.05.11s-.02.11-.05.11c-.4,0-.69.04-.88.11-.19.07-.32.2-.39.38-.07.18-.1.44-.1.79v5.13c0,1.46.3,2.54.91,3.22.61.68,1.43,1.03,2.48,1.03s1.82-.31,2.39-.95c.58-.63.86-1.52.86-2.67V2.39Z"/>
    <path class="cls-1" d="M29.02,2.12c0,.47.12.87.36,1.22.24.34.55.65.93.93.38.28.78.55,1.2.81.46.28.89.57,1.31.88.41.31.76.67,1.03,1.07.27.4.4.89.4,1.47,0,.62-.16,1.17-.49,1.65-.32.47-.77.85-1.34,1.12-.57.27-1.24.4-2.01.4-.32,0-.66-.03-1.02-.09s-.68-.14-.99-.25-.56-.22-.75-.34c-.05-.04-.09-.08-.12-.13-.03-.05-.05-.12-.06-.22l-.11-2.72c-.01-.06.02-.09.08-.1.07,0,.1.02.12.06.14.36.31.74.51,1.14.2.4.43.77.69,1.11.26.34.57.61.91.82.34.21.73.31,1.18.31.31,0,.61-.05.88-.16.28-.11.5-.3.68-.57s.27-.64.27-1.11c0-.56-.13-1.05-.39-1.45-.26-.4-.58-.75-.98-1.05-.4-.3-.81-.58-1.24-.85-.42-.28-.82-.56-1.21-.85-.38-.29-.7-.62-.95-1s-.37-.84-.37-1.38c0-.66.18-1.2.54-1.62.36-.42.82-.73,1.38-.94.56-.2,1.13-.31,1.72-.31.4,0,.8.04,1.21.11.41.07.76.17,1.04.31.11.04.18.08.22.14.04.06.05.13.05.2l.04,2.43s-.03.08-.08.09c-.05.01-.09,0-.12-.04-.06-.18-.15-.43-.27-.75-.12-.32-.29-.64-.5-.96-.22-.32-.49-.6-.81-.83-.32-.23-.72-.34-1.19-.34-.36,0-.67.07-.94.22-.26.14-.47.35-.61.6-.14.26-.22.57-.22.94Z"/>
    <path class="cls-1" d="M39.04,9.99V1.66c0-.35-.04-.61-.11-.78-.07-.17-.21-.29-.41-.36s-.52-.1-.94-.1c-.02,0-.04-.04-.04-.11s.01-.11.04-.11c.31,0,.66,0,1.04.03.38.02.79.03,1.21.03.52,0,.97,0,1.37-.03s.75-.03,1.06-.03c.02,0,.04.04.04.11s-.01.11-.04.11c-.43,0-.76.04-.97.11-.22.07-.36.2-.43.38-.07.18-.11.44-.11.79v8.3c0,.35.04.61.11.79.07.18.22.3.44.36.22.06.54.09.96.09.02,0,.04.04.04.11s-.01.11-.04.11c-.32,0-.68,0-1.07-.02-.39-.01-.84-.02-1.36-.02-.42,0-.83,0-1.22.02-.4.01-.74.02-1.04.02-.02,0-.04-.04-.04-.11s.01-.11.04-.11c.42,0,.73-.03.94-.09.2-.06.34-.18.42-.36.08-.18.12-.44.12-.79ZM39.83,5.83v-.47h7.88v.47h-7.88ZM46.94,1.69c0-.35-.04-.61-.11-.79-.07-.18-.22-.31-.43-.38-.22-.07-.55-.11-.99-.11-.04,0-.05-.04-.05-.11s.02-.11.05-.11c.3,0,.65,0,1.04.03.39.02.84.03,1.36.03.42,0,.83,0,1.24-.03.41-.02.76-.03,1.06-.03.04,0,.05.04.05.11s-.02.11-.05.11c-.42,0-.74.03-.95.1s-.35.19-.42.36c-.07.17-.11.44-.11.78v8.33c0,.35.04.61.11.79.07.18.21.3.42.36.21.06.52.09.95.09.04,0,.05.04.05.11s-.02.11-.05.11c-.3,0-.65,0-1.06-.02-.41-.01-.82-.02-1.24-.02-.52,0-.97,0-1.36.02-.39.01-.74.02-1.04.02-.04,0-.05-.04-.05-.11s.02-.11.05-.11c.44,0,.77-.03.99-.09.22-.06.36-.18.43-.36.07-.18.11-.44.11-.79V1.69Z"/>
    <path class="cls-1" d="M56.41,9.99c0,.35.03.61.1.79s.19.3.39.36c.19.06.49.09.88.09.04,0,.05.04.05.11s-.02.11-.05.11c-.3,0-.64,0-1.01-.02-.37-.01-.79-.02-1.24-.02-.42,0-.82,0-1.21.02-.38.01-.73.02-1.03.02-.04,0-.05-.04-.05-.11s.02-.11.05-.11c.38,0,.68-.03.88-.09.2-.06.34-.18.41-.36.07-.18.1-.44.1-.79V1.66c0-.35-.03-.61-.1-.78-.07-.17-.2-.29-.41-.36s-.5-.1-.88-.1c-.04,0-.05-.04-.05-.11s.02-.11.05-.11c.3,0,.64,0,1.03.03s.79.03,1.21.03c.46,0,.87,0,1.25-.03s.71-.03,1-.03c.04,0,.05.04.05.11s-.02.11-.05.11c-.38,0-.67.04-.87.11-.2.07-.33.2-.4.38-.07.18-.1.44-.1.79v8.3Z"/>
    <path class="cls-1" d="M71.89,5.38l.2-.29c.78,0,1.46.13,2.04.4.58.26,1.04.63,1.36,1.09.32.46.49.99.49,1.59s-.17,1.19-.51,1.7c-.34.51-.81.91-1.41,1.21-.6.29-1.28.44-2.03.44-.35,0-.77-.02-1.26-.05s-.94-.05-1.35-.05-.82,0-1.21.02c-.38.01-.73.02-1.03.02-.04,0-.05-.04-.05-.11s.02-.11.05-.11c.37,0,.66-.03.85-.09.2-.06.34-.18.41-.36s.12-.44.12-.79V1.66c0-.35-.04-.61-.11-.78-.07-.17-.21-.29-.41-.36-.2-.07-.48-.1-.85-.1-.02,0-.04-.04-.04-.11s.01-.11.04-.11c.3,0,.64,0,1.02.03s.78.03,1.2.03c.34,0,.7-.02,1.08-.05s.75-.05,1.1-.05c.72,0,1.32.09,1.81.28.49.19.85.45,1.11.8.25.35.38.77.38,1.26,0,.67-.26,1.27-.77,1.79-.52.52-1.25.89-2.21,1.11ZM71.28.5c-.24,0-.44.03-.58.09s-.25.17-.31.34c-.06.17-.09.42-.09.76v3.53l-.65-.13c.4.01.72.02.97.03.25,0,.39,0,.41,0,.74,0,1.29-.24,1.64-.72.35-.48.52-1.07.52-1.76,0-.44-.07-.83-.21-1.15-.14-.32-.35-.57-.63-.74-.28-.17-.64-.25-1.07-.25ZM71.73,11.11c.85,0,1.47-.22,1.85-.66.38-.44.58-1.05.58-1.85,0-.89-.23-1.61-.69-2.18s-1.16-.85-2.1-.85c-.18,0-.42,0-.72,0-.3,0-.61.04-.94.1l.58-.22v4.52c0,.25.03.46.09.63.06.17.19.29.41.37.21.08.52.12.94.12Z"/>
    <path class="cls-1" d="M83.56,6.53l-2.9-4.43c-.43-.66-.79-1.11-1.08-1.34-.29-.23-.56-.35-.83-.35-.04,0-.05-.04-.05-.11s.02-.11.05-.11c.19,0,.39,0,.59.03s.4.03.58.03c.34,0,.68,0,1.03,0,.35,0,.69-.01,1.01-.03.32-.01.58-.02.8-.02.02,0,.04.04.04.11s-.01.11-.04.11c-.4,0-.64.1-.72.31-.08.2-.02.46.2.77l2.75,4.23-1.44.81ZM83.41,5.87l1.71-.16v4.28c0,.35.03.61.09.79.06.18.19.3.38.36.19.06.49.09.88.09.04,0,.05.04.05.11s-.02.11-.05.11c-.3,0-.63,0-1-.02-.37-.01-.77-.02-1.21-.02-.42,0-.83,0-1.21.02-.39.01-.74.02-1.04.02-.02,0-.04-.04-.04-.11s.01-.11.04-.11c.4,0,.69-.03.89-.09.2-.06.33-.18.4-.36.07-.18.11-.44.11-.79v-4.12ZM84.31,6.39l2.38-3.91c.38-.62.53-1.12.44-1.5-.09-.38-.42-.57-.98-.57-.02,0-.04-.04-.04-.11s.01-.11.04-.11c.37,0,.72,0,1.04.03.32.02.75.03,1.28.03.3,0,.54,0,.73-.03.19-.02.41-.03.67-.03.02,0,.04.04.04.11s-.01.11-.04.11c-.25,0-.54.09-.86.28-.32.19-.64.44-.95.77s-.61.72-.88,1.16l-2.5,4.05-.36-.29Z"/>
  </g>
</svg>